{
  "version": "2.5.2",
  "modules": [
    {
      "id": 1,
      "plugin": "Core",
      "model": "AudioInterface2",
      "version": "2.5.2",
      "params": [{"id": 0, "value": 1.0}],
      "pos": [0, 0]
    },
    {
      "id": 2,
      "plugin": "Core",
      "model": "MIDIToCVInterface",
      "version": "2.5.2",
      "params": [],
      "pos": [8, 0]
    },
    {
      "id": 3,
      "plugin": "Fundamental",
      "model": "VCO",
      "version": "2.6.5.rc1",
      "params": [],
      "pos": [20, 0]
    },
    {
      "id": 4,
      "plugin": "Fundamental",
      "model": "ADSR",
      "version": "2.6.5.rc1",
      "params": [],
      "pos": [30, 0]
    },
    {
      "id": 5,
      "plugin": "Fundamental",
      "model": "VCA-1",
      "version": "2.6.5.rc1",
      "params": [],
      "pos": [50, 0]
    },
    {
      "id": 6,
      "plugin": "Fundamental",
      "model": "VCF",
      "version": "2.6.5.rc1",
      "params": [{"id": 0, "value": 0.5}],
      "pos": [40, 0]
    }
  ],
  "cables": [
    {
      "id": 1,
      "outputModuleId": 2,
      "outputId": 0,
      "inputModuleId": 3,
      "inputId": 0
    },
    {
      "id": 2,
      "outputModuleId": 2,
      "outputId": 1,
      "inputModuleId": 4,
      "inputId": 4
    },
    {
      "id": 3,
      "outputModuleId": 3,
      "outputId": 2,
      "inputModuleId": 6,
      "inputId": 3
    },
    {
      "id": 4,
      "outputModuleId": 6,
      "outputId": 0,
      "inputModuleId": 5,
      "inputId": 1
    },
    {
      "id": 5,
      "outputModuleId": 4,
      "outputId": 0,
      "inputModuleId": 5,
      "inputId": 0
    },
    {
      "id": 6,
      "outputModuleId": 5,
      "outputId": 0,
      "inputModuleId": 1,
      "inputId": 0
    },
    {
      "id": 7,
      "outputModuleId": 5,
      "outputId": 0,
      "inputModuleId": 1,
      "inputId": 1
    },
    {
      "id": 8,
      "outputModuleId": 4,
      "outputId": 0,
      "inputModuleId": 6,
      "inputId": 0
    }
  ]
}
