{
  "version": "2.5.2",
  "modules": [
    {
      "id": 1,
      "plugin": "ImpromptuModular",
      "model": "Clocked",
      "params": [
        {
          "id": 0,
          "value": 120.0
        }
      ],
      "pos": [
        0,
        0
      ]
    },
    {
      "id": 2,
      "plugin": "Fundamental",
      "model": "SEQ3",
      "params": [
        {
          "id": 3,
          "value": 4.0
        },
        {
          "id": 4,
          "value": -1.0
        },
        {
          "id": 5,
          "value": -0.667
        },
        {
          "id": 6,
          "value": -0.417
        },
        {
          "id": 7,
          "value": -0.25
        },
        {
          "id": 28,
          "value": 1.0
        },
        {
          "id": 29,
          "value": 1.0
        },
        {
          "id": 30,
          "value": 1.0
        },
        {
          "id": 31,
          "value": 1.0
        }
      ],
      "pos": [
        8,
        0
      ]
    },
    {
      "id": 3,
      "plugin": "Bogaudio",
      "model": "Bogaudio-VCO",
      "params": [],
      "pos": [
        20,
        0
      ]
    },
    {
      "id": 4,
      "plugin": "Bogaudio",
      "model": "Bogaudio-ADSR",
      "params": [
        {
          "id": 0,
          "value": 0.0316
        },
        {
          "id": 1,
          "value": 0.1414
        },
        {
          "id": 2,
          "value": 0.6
        },
        {
          "id": 3,
          "value": 0.1732
        }
      ],
      "pos": [
        28,
        0
      ]
    },
    {
      "id": 5,
      "plugin": "Fundamental",
      "model": "VCF",
      "params": [
        {
          "id": 0,
          "value": 0.5
        },
        {
          "id": 2,
          "value": 0.2
        }
      ],
      "pos": [
        36,
        0
      ]
    },
    {
      "id": 6,
      "plugin": "Fundamental",
      "model": "VCA",
      "params": [
        {
          "id": 0,
          "value": 1.0
        },
        {
          "id": 1,
          "value": 1.0
        }
      ],
      "pos": [
        44,
        0
      ]
    },
    {
      "id": 7,
      "plugin": "Core",
      "model": "AudioInterface2",
      "params": [
        {
          "id": 0,
          "value": 1.0
        }
      ],
      "pos": [
        52,
        0
      ]
    }
  ],
  "cables": [
    {
      "id": 1,
      "outputModuleId": 1,
      "outputId": 1,
      "inputModuleId": 2,
      "inputId": 1
    },
    {
      "id": 2,
      "outputModuleId": 2,
      "outputId": 1,
      "inputModuleId": 3,
      "inputId": 0
    },
    {
      "id": 3,
      "outputModuleId": 2,
      "outputId": 0,
      "inputModuleId": 4,
      "inputId": 0
    },
    {
      "id": 4,
      "outputModuleId": 3,
      "outputId": 1,
      "inputModuleId": 5,
      "inputId": 3
    },
    {
      "id": 5,
      "outputModuleId": 5,
      "outputId": 0,
      "inputModuleId": 6,
      "inputId": 2
    },
    {
      "id": 6,
      "outputModuleId": 4,
      "outputId": 0,
      "inputModuleId": 6,
      "inputId": 0
    },
    {
      "id": 7,
      "outputModuleId": 6,
      "outputId": 0,
      "inputModuleId": 7,
      "inputId": 0
    }
  ]
}