{
  "version": "2.5.2",
  "modules": [
    {
      "id": 1,
      "plugin": "ImpromptuModular",
      "model": "Clocked",
      "params": [
        {
          "id": 0,
          "value": 89.0
        }
      ],
      "pos": [
        0,
        0
      ]
    },
    {
      "id": 2,
      "plugin": "Fundamental",
      "model": "VCO",
      "params": [
        {
          "id": 2,
          "value": -17.0
        },
        {
          "id": 5,
          "value": 0.5
        }
      ],
      "pos": [
        8,
        0
      ]
    },
    {
      "id": 3,
      "plugin": "Fundamental",
      "model": "VCO",
      "params": [
        {
          "id": 2,
          "value": -17.0
        },
        {
          "id": 5,
          "value": 0.5
        }
      ],
      "pos": [
        16,
        0
      ]
    },
    {
      "id": 4,
      "plugin": "Fundamental",
      "model": "VCMixer",
      "params": [
        {
          "id": 0,
          "value": 1.0
        },
        {
          "id": 1,
          "value": 1.0
        },
        {
          "id": 2,
          "value": 1.0
        },
        {
          "id": 3,
          "value": 1.0
        },
        {
          "id": 4,
          "value": 1.0
        }
      ],
      "pos": [
        24,
        0
      ]
    },
    {
      "id": 5,
      "plugin": "Fundamental",
      "model": "VCF",
      "params": [
        {
          "id": 0,
          "value": 0.62
        },
        {
          "id": 2,
          "value": 0.2
        }
      ],
      "pos": [
        34,
        0
      ]
    },
    {
      "id": 6,
      "plugin": "Fundamental",
      "model": "VCA-1",
      "params": [
        {
          "id": 0,
          "value": 1.0
        }
      ],
      "pos": [
        44,
        0
      ]
    },
    {
      "id": 7,
      "plugin": "Bogaudio",
      "model": "Bogaudio-ADSR",
      "params": [
        {
          "id": 0,
          "value": 0.6325
        },
        {
          "id": 1,
          "value": 0.0
        },
        {
          "id": 2,
          "value": 1.0
        },
        {
          "id": 3,
          "value": 0.8944
        }
      ],
      "pos": [
        52,
        0
      ]
    },
    {
      "id": 8,
      "plugin": "Bogaudio",
      "model": "Bogaudio-LFO",
      "params": [
        {
          "id": 0,
          "value": -1.353
        },
        {
          "id": 1,
          "value": 1.0
        }
      ],
      "pos": [
        0,
        1
      ]
    },
    {
      "id": 9,
      "plugin": "Fundamental",
      "model": "8vert",
      "params": [
        {
          "id": 0,
          "value": 0.3
        }
      ],
      "pos": [
        10,
        1
      ]
    },
    {
      "id": 10,
      "plugin": "Fundamental",
      "model": "VCMixer",
      "params": [
        {
          "id": 0,
          "value": 1.0
        },
        {
          "id": 1,
          "value": 1.0
        },
        {
          "id": 2,
          "value": 1.0
        },
        {
          "id": 3,
          "value": 1.0
        },
        {
          "id": 4,
          "value": 1.0
        }
      ],
      "pos": [
        20,
        1
      ]
    },
    {
      "id": 11,
      "plugin": "Fundamental",
      "model": "SEQ3",
      "params": [
        {
          "id": 3,
          "value": 5.0
        },
        {
          "id": 4,
          "value": -2.42
        },
        {
          "id": 5,
          "value": -2.42
        },
        {
          "id": 6,
          "value": -2.58
        },
        {
          "id": 7,
          "value": -2.42
        },
        {
          "id": 8,
          "value": -2.75
        },
        {
          "id": 28,
          "value": 1.0
        },
        {
          "id": 30,
          "value": 1.0
        }
      ],
      "pos": [
        30,
        1
      ]
    },
    {
      "id": 12,
      "plugin": "Fundamental",
      "model": "VCO",
      "params": [
        {
          "id": 2,
          "value": 0.0
        },
        {
          "id": 5,
          "value": 0.5
        }
      ],
      "pos": [
        44,
        1
      ]
    },
    {
      "id": 13,
      "plugin": "Fundamental",
      "model": "VCF",
      "params": [
        {
          "id": 0,
          "value": 0.4197
        },
        {
          "id": 2,
          "value": 0.0
        }
      ],
      "pos": [
        52,
        1
      ]
    },
    {
      "id": 14,
      "plugin": "Fundamental",
      "model": "VCA-1",
      "params": [
        {
          "id": 0,
          "value": 1.0
        }
      ],
      "pos": [
        60,
        1
      ]
    },
    {
      "id": 15,
      "plugin": "Bogaudio",
      "model": "Bogaudio-ADSR",
      "params": [
        {
          "id": 0,
          "value": 0.0316
        },
        {
          "id": 1,
          "value": 0.2
        },
        {
          "id": 2,
          "value": 0.0
        },
        {
          "id": 3,
          "value": 0.1
        }
      ],
      "pos": [
        0,
        2
      ]
    }
  ],
  "cables": [
    {
      "id": 1,
      "outputModuleId": 2,
      "outputId": 2,
      "inputModuleId": 4,
      "inputId": 1
    },
    {
      "id": 2,
      "outputModuleId": 3,
      "outputId": 2,
      "inputModuleId": 4,
      "inputId": 2
    },
    {
      "id": 3,
      "outputModuleId": 4,
      "outputId": 0,
      "inputModuleId": 5,
      "inputId": 3
    },
    {
      "id": 4,
      "outputModuleId": 5,
      "outputId": 0,
      "inputModuleId": 6,
      "inputId": 1
    },
    {
      "id": 5,
      "outputModuleId": 7,
      "outputId": 0,
      "inputModuleId": 6,
      "inputId": 0
    },
    {
      "id": 6,
      "outputModuleId": 6,
      "outputId": 0,
      "inputModuleId": 10,
      "inputId": 1
    },
    {
      "id": 7,
      "outputModuleId": 8,
      "outputId": 4,
      "inputModuleId": 9,
      "inputId": 0
    },
    {
      "id": 8,
      "outputModuleId": 9,
      "outputId": 0,
      "inputModuleId": 5,
      "inputId": 0
    },
    {
      "id": 9,
      "outputModuleId": 1,
      "outputId": 3,
      "inputModuleId": 11,
      "inputId": 1
    },
    {
      "id": 10,
      "outputModuleId": 11,
      "outputId": 1,
      "inputModuleId": 12,
      "inputId": 0
    },
    {
      "id": 11,
      "outputModuleId": 11,
      "outputId": 0,
      "inputModuleId": 15,
      "inputId": 0
    },
    {
      "id": 12,
      "outputModuleId": 12,
      "outputId": 0,
      "inputModuleId": 13,
      "inputId": 3
    },
    {
      "id": 13,
      "outputModuleId": 13,
      "outputId": 0,
      "inputModuleId": 14,
      "inputId": 1
    },
    {
      "id": 14,
      "outputModuleId": 15,
      "outputId": 0,
      "inputModuleId": 14,
      "inputId": 0
    },
    {
      "id": 15,
      "outputModuleId": 14,
      "outputId": 0,
      "inputModuleId": 10,
      "inputId": 2
    }
  ]
}