{
  "version": "2.5.2",
  "modules": [
    {
      "id": 1,
      "plugin": "Fundamental",
      "model": "VCO",
      "version": "2.6.5.rc1",
      "params": [
        {"id": 1, "value": 1.0},
        {"id": 2, "value": -17.0},
        {"id": 4, "value": 0.0},
        {"id": 5, "value": 0.5},
        {"id": 6, "value": 0.0},
        {"id": 7, "value": 0.0}
      ],
      "pos": [0, 0]
    },
    {
      "id": 2,
      "plugin": "Fundamental",
      "model": "VCO",
      "version": "2.6.5.rc1",
      "params": [
        {"id": 1, "value": 1.0},
        {"id": 2, "value": -16.88},
        {"id": 4, "value": 0.0},
        {"id": 5, "value": 0.5},
        {"id": 6, "value": 0.0},
        {"id": 7, "value": 0.0}
      ],
      "pos": [12, 0]
    },
    {
      "id": 3,
      "plugin": "Fundamental",
      "model": "Noise",
      "version": "2.6.5.rc1",
      "params": [],
      "pos": [24, 0]
    },
    {
      "id": 4,
      "plugin": "Fundamental",
      "model": "LFO",
      "version": "2.6.5.rc1",
      "params": [
        {"id": 0, "value": 0.0},
        {"id": 1, "value": 0.0},
        {"id": 2, "value": -3.0},
        {"id": 3, "value": 0.0},
        {"id": 5, "value": 0.5},
        {"id": 6, "value": 0.0}
      ],
      "pos": [32, 0]
    },
    {
      "id": 5,
      "plugin": "Fundamental",
      "model": "VCMixer",
      "version": "2.6.5.rc1",
      "params": [
        {"id": 0, "value": 1.0},
        {"id": 1, "value": 1.0},
        {"id": 2, "value": 0.9},
        {"id": 3, "value": 0.25},
        {"id": 4, "value": 0.0}
      ],
      "pos": [0, 1]
    },
    {
      "id": 6,
      "plugin": "Fundamental",
      "model": "VCF",
      "version": "2.6.5.rc1",
      "params": [
        {"id": 0, "value": 0.45},
        {"id": 2, "value": 0.2},
        {"id": 3, "value": 0.3},
        {"id": 4, "value": 0.0},
        {"id": 5, "value": 0.0},
        {"id": 6, "value": 0.0}
      ],
      "pos": [10, 1]
    },
    {
      "id": 7,
      "plugin": "Fundamental",
      "model": "VCA",
      "version": "2.6.5.rc1",
      "params": [
        {"id": 0, "value": 1.0},
        {"id": 1, "value": 1.0}
      ],
      "pos": [20, 1]
    },
    {
      "id": 8,
      "plugin": "Fundamental",
      "model": "Delay",
      "version": "2.6.5.rc1",
      "params": [
        {"id": 0, "value": 0.676},
        {"id": 1, "value": 0.55},
        {"id": 2, "value": 0.45},
        {"id": 3, "value": 0.35},
        {"id": 4, "value": 0.0},
        {"id": 5, "value": 0.0},
        {"id": 6, "value": 0.0},
        {"id": 7, "value": 0.0}
      ],
      "pos": [26, 1]
    },
    {
      "id": 9,
      "plugin": "Core",
      "model": "AudioInterface2",
      "version": "2.5.2",
      "params": [
        {"id": 0, "value": 1.0}
      ],
      "pos": [36, 1]
    }
  ],
  "cables": [
    {
      "id": 1,
      "outputModuleId": 1,
      "outputId": 2,
      "inputModuleId": 5,
      "inputId": 1
    },
    {
      "id": 2,
      "outputModuleId": 2,
      "outputId": 2,
      "inputModuleId": 5,
      "inputId": 2
    },
    {
      "id": 3,
      "outputModuleId": 3,
      "outputId": 1,
      "inputModuleId": 5,
      "inputId": 3
    },
    {
      "id": 4,
      "outputModuleId": 4,
      "outputId": 0,
      "inputModuleId": 6,
      "inputId": 0
    },
    {
      "id": 5,
      "outputModuleId": 5,
      "outputId": 0,
      "inputModuleId": 6,
      "inputId": 3
    },
    {
      "id": 6,
      "outputModuleId": 6,
      "outputId": 0,
      "inputModuleId": 7,
      "inputId": 2
    },
    {
      "id": 7,
      "outputModuleId": 7,
      "outputId": 0,
      "inputModuleId": 8,
      "inputId": 4
    },
    {
      "id": 8,
      "outputModuleId": 8,
      "outputId": 0,
      "inputModuleId": 9,
      "inputId": 0
    },
    {
      "id": 9,
      "outputModuleId": 8,
      "outputId": 0,
      "inputModuleId": 9,
      "inputId": 1
    }
  ]
}
