{
  "version": "2.5.2",
  "modules": [
    {
      "id": 1,
      "plugin": "ImpromptuModular",
      "model": "Clocked",
      "version": "2.0.0",
      "params": [],
      "pos": [0, 0]
    },
    {
      "id": 2,
      "plugin": "Fundamental",
      "model": "VCO",
      "version": "2.6.5.rc1",
      "params": [],
      "pos": [12, 0]
    },
    {
      "id": 3,
      "plugin": "Fundamental",
      "model": "VCO",
      "version": "2.6.5.rc1",
      "params": [],
      "pos": [22, 0]
    },
    {
      "id": 4,
      "plugin": "Fundamental",
      "model": "VCMixer",
      "version": "2.6.5.rc1",
      "params": [],
      "pos": [32, 0]
    },
    {
      "id": 5,
      "plugin": "Fundamental",
      "model": "VCF",
      "version": "2.6.5.rc1",
      "params": [{"id": 0, "value": 0.45}],
      "pos": [42, 0]
    },
    {
      "id": 6,
      "plugin": "Fundamental",
      "model": "VCA-1",
      "version": "2.6.5.rc1",
      "params": [],
      "pos": [52, 0]
    },
    {
      "id": 7,
      "plugin": "Bogaudio",
      "model": "Bogaudio-ADSR",
      "version": "2.0.0",
      "params": [],
      "pos": [62, 0]
    },
    {
      "id": 8,
      "plugin": "Bogaudio",
      "model": "Bogaudio-LFO",
      "version": "2.0.0",
      "params": [],
      "pos": [0, 1]
    },
    {
      "id": 9,
      "plugin": "Fundamental",
      "model": "8vert",
      "version": "2.6.5.rc1",
      "params": [{"id": 0, "value": 0.3}],
      "pos": [10, 1]
    },
    {
      "id": 10,
      "plugin": "Fundamental",
      "model": "VCMixer",
      "version": "2.6.5.rc1",
      "params": [],
      "pos": [72, 0]
    },
    {
      "id": 11,
      "plugin": "Core",
      "model": "AudioInterface2",
      "version": "2.5.2",
      "params": [{"id": 0, "value": 1.0}],
      "pos": [82, 0]
    },
    {
      "id": 12,
      "plugin": "Fundamental",
      "model": "SEQ3",
      "version": "2.6.5.rc1",
      "params": [],
      "pos": [0, 2]
    },
    {
      "id": 13,
      "plugin": "Fundamental",
      "model": "VCO",
      "version": "2.6.5.rc1",
      "params": [],
      "pos": [20, 2]
    },
    {
      "id": 14,
      "plugin": "Fundamental",
      "model": "VCF",
      "version": "2.6.5.rc1",
      "params": [{"id": 0, "value": 0.25}],
      "pos": [30, 2]
    },
    {
      "id": 15,
      "plugin": "Fundamental",
      "model": "VCA-1",
      "version": "2.6.5.rc1",
      "params": [],
      "pos": [40, 2]
    },
    {
      "id": 16,
      "plugin": "Bogaudio",
      "model": "Bogaudio-ADSR",
      "version": "2.0.0",
      "params": [],
      "pos": [50, 2]
    }
  ],
  "cables": [
    {
      "id": 1,
      "outputModuleId": 2,
      "outputId": 2,
      "inputModuleId": 4,
      "inputId": 1
    },
    {
      "id": 2,
      "outputModuleId": 3,
      "outputId": 2,
      "inputModuleId": 4,
      "inputId": 2
    },
    {
      "id": 3,
      "outputModuleId": 4,
      "outputId": 0,
      "inputModuleId": 5,
      "inputId": 3
    },
    {
      "id": 4,
      "outputModuleId": 5,
      "outputId": 0,
      "inputModuleId": 6,
      "inputId": 1
    },
    {
      "id": 5,
      "outputModuleId": 7,
      "outputId": 0,
      "inputModuleId": 6,
      "inputId": 0
    },
    {
      "id": 6,
      "outputModuleId": 6,
      "outputId": 0,
      "inputModuleId": 10,
      "inputId": 1
    },
    {
      "id": 7,
      "outputModuleId": 8,
      "outputId": 4,
      "inputModuleId": 9,
      "inputId": 0
    },
    {
      "id": 8,
      "outputModuleId": 9,
      "outputId": 0,
      "inputModuleId": 5,
      "inputId": 0
    },
    {
      "id": 9,
      "outputModuleId": 10,
      "outputId": 0,
      "inputModuleId": 11,
      "inputId": 0
    },
    {
      "id": 10,
      "outputModuleId": 10,
      "outputId": 0,
      "inputModuleId": 11,
      "inputId": 1
    },
    {
      "id": 11,
      "outputModuleId": 1,
      "outputId": 3,
      "inputModuleId": 12,
      "inputId": 1
    },
    {
      "id": 12,
      "outputModuleId": 12,
      "outputId": 1,
      "inputModuleId": 13,
      "inputId": 0
    },
    {
      "id": 13,
      "outputModuleId": 12,
      "outputId": 0,
      "inputModuleId": 16,
      "inputId": 0
    },
    {
      "id": 14,
      "outputModuleId": 13,
      "outputId": 0,
      "inputModuleId": 14,
      "inputId": 3
    },
    {
      "id": 15,
      "outputModuleId": 14,
      "outputId": 0,
      "inputModuleId": 15,
      "inputId": 1
    },
    {
      "id": 16,
      "outputModuleId": 16,
      "outputId": 0,
      "inputModuleId": 15,
      "inputId": 0
    },
    {
      "id": 17,
      "outputModuleId": 15,
      "outputId": 0,
      "inputModuleId": 10,
      "inputId": 2
    }
  ]
}
